<svg xmlns="http://www.w3.org/2000/svg" xmlns:xlink="http://www.w3.org/1999/xlink" width="50" height="50" viewBox="0 0 50 50">
  <defs>
    <style>
      .cls-1 {
        fill: none;
      }

      .cls-2, .cls-5 {
        fill: #9b9b9b;
      }

      .cls-2 {
        stroke: #707070;
      }

      .cls-3 {
        clip-path: url(#clip-path);
      }

      .cls-4 {
        clip-path: url(#clip-path-2);
      }

      .cls-6 {
        fill: #1183dc;
      }
    </style>
    <clipPath id="clip-path">
      <rect class="cls-1" width="50" height="50"/>
    </clipPath>
    <clipPath id="clip-path-2">
      <rect id="Rectangle_22" data-name="Rectangle 22" class="cls-2" width="50" height="50" transform="translate(1433 817)"/>
    </clipPath>
  </defs>
  <g id="Repeat_Grid_1" data-name="Repeat Grid 1" class="cls-3">
    <g transform="translate(-1433 -817)">
      <g id="Mask_Group_12" data-name="Mask Group 12" class="cls-4">
        <path id="cloud-rain-fill" class="cls-5" d="M13,37.583a1.563,1.563,0,0,1,.988,1.978L12.42,44.249a1.563,1.563,0,1,1-2.963-.988l1.563-4.688A1.563,1.563,0,0,1,13,37.583Zm9.376,0a1.563,1.563,0,0,1,.988,1.978l-3.125,9.376a1.563,1.563,0,1,1-2.963-.988L20.4,38.573a1.563,1.563,0,0,1,1.975-.991Zm9.376,0a1.563,1.563,0,0,1,.988,1.978l-1.563,4.688a1.563,1.563,0,1,1-2.963-.988l1.563-4.688a1.563,1.563,0,0,1,1.975-.991Zm9.376,0a1.563,1.563,0,0,1,.988,1.978l-3.125,9.376a1.563,1.563,0,1,1-2.963-.988l3.125-9.376a1.563,1.563,0,0,1,1.975-.991ZM41.9,15.711a15.63,15.63,0,0,0-29.688-3.138,10.939,10.939,0,1,0-1.269,21.806H40.63A9.376,9.376,0,0,0,41.9,15.711Z" transform="translate(1432.983 815.408)"/>
      </g>
      <rect id="Rectangle_27" data-name="Rectangle 27" class="cls-6" width="4" height="14" rx="2" transform="translate(1472.035 851.839) rotate(19)"/>
      <rect id="Rectangle_28" data-name="Rectangle 28" class="cls-6" width="4" height="8" rx="2" transform="translate(1463.035 852.46) rotate(19)"/>
      <rect id="Rectangle_29" data-name="Rectangle 29" class="cls-6" width="4" height="14" rx="2" transform="matrix(0.94, 0.342, -0.342, 0.94, 1453.345, 852.008)"/>
      <rect id="Rectangle_30" data-name="Rectangle 30" class="cls-6" width="4" height="9" rx="2" transform="matrix(0.94, 0.342, -0.342, 0.94, 1444.345, 852.008)"/>
    </g>
  </g>
</svg>
