<svg xmlns="http://www.w3.org/2000/svg" xmlns:xlink="http://www.w3.org/1999/xlink" width="75" height="75" viewBox="0 0 75 75">
  <defs>
    <style>
      .cls-1 {
        fill: #fff;
        stroke: #707070;
      }

      .cls-2 {
        clip-path: url(#clip-path);
      }

      .cls-3 {
        fill: #e8ff00;
      }
    </style>
    <clipPath id="clip-path">
      <rect id="Rectangle_13" data-name="Rectangle 13" class="cls-1" width="75" height="75" transform="translate(223 591)"/>
    </clipPath>
  </defs>
  <g id="Mask_Group_3" data-name="Mask Group 3" class="cls-2" transform="translate(-223 -591)">
    <path id="sun-fill" class="cls-3" d="M37.5,56.25A18.75,18.75,0,1,0,18.75,37.5,18.75,18.75,0,0,0,37.5,56.25ZM37.5,0a2.344,2.344,0,0,1,2.344,2.344v9.375a2.344,2.344,0,0,1-4.687,0V2.344A2.344,2.344,0,0,1,37.5,0Zm0,60.938a2.344,2.344,0,0,1,2.344,2.344v9.375a2.344,2.344,0,0,1-4.687,0V63.281A2.344,2.344,0,0,1,37.5,60.938ZM75,37.5a2.344,2.344,0,0,1-2.344,2.344H63.281a2.344,2.344,0,0,1,0-4.687h9.375A2.344,2.344,0,0,1,75,37.5Zm-60.937,0a2.344,2.344,0,0,1-2.344,2.344H2.344a2.344,2.344,0,0,1,0-4.687h9.375A2.344,2.344,0,0,1,14.063,37.5ZM64.017,10.983a2.344,2.344,0,0,1,0,3.314L57.389,20.93a2.345,2.345,0,0,1-3.314-3.319L60.7,10.983A2.344,2.344,0,0,1,64.017,10.983ZM20.925,54.075a2.344,2.344,0,0,1,0,3.314L14.3,64.017A2.344,2.344,0,1,1,10.983,60.7l6.628-6.628A2.344,2.344,0,0,1,20.925,54.075Zm43.092,9.942a2.344,2.344,0,0,1-3.314,0l-6.628-6.628a2.344,2.344,0,1,1,3.314-3.314L64.017,60.7A2.344,2.344,0,0,1,64.017,64.017ZM20.925,20.93a2.344,2.344,0,0,1-3.314,0L10.983,14.3A2.344,2.344,0,1,1,14.3,10.983l6.628,6.628a2.344,2.344,0,0,1,0,3.319Z" transform="translate(223 591)"/>
  </g>
</svg>
