<svg xmlns="http://www.w3.org/2000/svg" width="43" height="43" viewBox="0 0 43 43">
  <defs>
    <style>
      .cls-1 {
        fill: #df6700;
      }
    </style>
  </defs>
  <path id="brightness-low-fill" class="cls-1" d="M37.833,23.5A14.333,14.333,0,1,1,23.5,9.167,14.333,14.333,0,0,1,37.833,23.5ZM25.292,3.792A1.792,1.792,0,1,1,23.5,2,1.792,1.792,0,0,1,25.292,3.792Zm0,39.417A1.792,1.792,0,1,1,23.5,41.417,1.792,1.792,0,0,1,25.292,43.208ZM43.208,25.292A1.792,1.792,0,1,1,45,23.5,1.792,1.792,0,0,1,43.208,25.292Zm-39.417,0A1.792,1.792,0,1,1,5.583,23.5,1.792,1.792,0,0,1,3.792,25.292ZM38.7,10.829a1.792,1.792,0,1,1,0-2.534,1.791,1.791,0,0,1,0,2.534ZM10.829,38.7a1.792,1.792,0,1,1,0-2.534,1.791,1.791,0,0,1,0,2.534Zm25.341,0a1.792,1.792,0,1,1,2.534,0,1.791,1.791,0,0,1-2.534,0ZM8.3,10.829a1.792,1.792,0,1,1,2.534,0,1.791,1.791,0,0,1-2.534,0Z" transform="translate(-2 -2)"/>
</svg>
