<svg xmlns="http://www.w3.org/2000/svg" xmlns:xlink="http://www.w3.org/1999/xlink" width="36" height="43" viewBox="0 0 36 43">
  <defs>
    <style>
      .cls-1, .cls-3 {
        fill: #00b2ff;
      }

      .cls-1 {
        stroke: #707070;
      }

      .cls-2 {
        clip-path: url(#clip-path);
      }
    </style>
    <clipPath id="clip-path">
      <rect id="Rectangle_18" data-name="Rectangle 18" class="cls-1" width="36" height="43" transform="translate(192 931)"/>
    </clipPath>
  </defs>
  <g id="Mask_Group_9" data-name="Mask Group 9" class="cls-2" transform="translate(-192 -931)">
    <path id="droplet-fill" class="cls-3" d="M21.5,43c8.906,0,14.913-7.219,14.913-16.125C36.413,22.427,25.021,3.918,21.5,0s2.016,6.727,0,0c0,0-16.125,15.281-16.125,26.875A16.125,16.125,0,0,0,21.5,43ZM17.861,12.486l1.9,1.9A33.22,33.22,0,0,0,14.639,22.1l-2.4-1.2A35.728,35.728,0,0,1,17.861,12.486Z" transform="translate(188.5 931)"/>
  </g>
</svg>
