<svg xmlns="http://www.w3.org/2000/svg" width="49.143" height="43" viewBox="0 0 49.143 43">
  <defs>
    <style>
      .cls-1 {
        fill: #74ced1;
      }
    </style>
  </defs>
  <path id="wind" class="cls-1" d="M38.393,4.071a7.679,7.679,0,0,0-7.679,7.679,1.536,1.536,0,0,1-3.071,0A10.75,10.75,0,1,1,38.393,22.5H1.536a1.536,1.536,0,1,1,0-3.071H38.393a7.679,7.679,0,0,0,0-15.357Zm-21.5,3.071a3.071,3.071,0,0,0-3.071,3.071,1.536,1.536,0,0,1-3.071,0,6.143,6.143,0,1,1,6.143,6.143H1.536a1.536,1.536,0,1,1,0-3.071H16.893a3.071,3.071,0,1,0,0-6.143ZM0,27.107a1.536,1.536,0,0,1,1.536-1.536H32.379a9.214,9.214,0,1,1-9.214,9.214,1.536,1.536,0,1,1,3.071,0,6.143,6.143,0,1,0,6.143-6.143H1.536A1.536,1.536,0,0,1,0,27.107Z" transform="translate(0 -1)"/>
</svg>
